<svg width="407" height="401" viewBox="0 0 407 401" fill="none" xmlns="http://www.w3.org/2000/svg">
<path d="M154.133 0H177.977V33.4005H154.133V0ZM78.3808 26.2839L99.0294 14.5378L115.98 43.4622L95.3313 55.2083L78.3808 26.2839ZM26.1184 86.3637L38.0403 66.0195L67.3983 82.7201L55.4765 103.064L26.1184 86.3637ZM11.348 140.647H45.2491V164.139H11.348V140.647ZM26.1041 218.423L55.4614 201.723L67.3832 222.067L38.026 238.767L26.1041 218.423ZM264.686 82.7459L294.044 66.0461L305.966 86.3904L276.608 103.09L264.686 82.7459ZM216.121 43.4841L233.072 14.5589L253.72 26.305L236.77 55.2303L216.121 43.4841ZM171.037 181.407C172.569 181.407 174.106 181.447 175.642 181.526C183.211 166.958 194.323 154.481 208.157 145.105C224.016 134.354 242.464 128.409 261.697 127.803C256.872 109.554 246.724 92.9776 232.307 80.1367C214.115 63.9341 190.581 55.0102 166.038 55.0102C111.529 55.0102 67.1821 98.7034 67.1821 152.41C67.1821 178.784 77.826 203.554 96.6872 221.803C112.413 197.155 140.147 181.407 171.037 181.407ZM144.519 391.733L166.429 401L186.697 354.485H160.749L144.519 391.733ZM203.762 391.733L225.672 401L245.941 354.485H219.993L203.762 391.733ZM263.006 391.733L284.916 401L305.185 354.485H279.236L263.006 391.733ZM395.652 281.168C395.652 256.19 376.716 234.954 351.606 231.771L341.951 230.547L341.238 220.981C339.827 202.06 331.265 184.482 317.131 171.486C302.928 158.426 284.4 151.234 264.96 151.234C233.573 151.234 205.714 169.77 193.985 198.457L190.442 207.123L181.074 205.671C177.754 205.158 174.399 204.899 171.038 204.899C141.575 204.899 116.04 224.544 108.94 252.673L106.735 261.413L97.5956 261.583C78.5413 261.937 63.0389 277.501 63.0389 296.277C63.0389 315.419 78.8449 330.992 98.2728 330.992H345.083C372.966 330.993 395.652 308.642 395.652 281.168Z" fill="black"/>
</svg>
